<svg id="Circle" xmlns="http://www.w3.org/2000/svg" width="1449.036" height="2365.531" viewBox="0 0 1449.036 2365.531">
  <defs>
    <style>
      .cls-1 {
        fill: #d41857;
      }

      .cls-1, .cls-2, .cls-3, .cls-4, .cls-5 {
        fill-rule: evenodd;
      }

      .cls-2 {
        fill: #a50a3e;
      }

      .cls-3 {
        fill: #010101;
      }

      .cls-4 {
        fill: #333;
      }

      .cls-5 {
        fill: #fff;
      }
    </style>
  </defs>
  <path class="cls-1" d="M1784.22,1357.18c-75.56,52.29-117.99,94.66-117.99,94.66s12.34,3.09,52.44,33.93,194.34,252.95,203.6,283.8-12.34,64.78-15.43,80.2,18.51,43.19,18.51,43.19-36.22,16.41-74.03,33.93c-32.04,14.85-61.7,30.85-61.7,30.85l-27.76-49.36s-73.71,17.93-115.55-50.32c-20.88,21.06-23.26,37.98-23.26,37.98s-6.17,21.6,9.25,37.02,53.32,168.96,43.59,242.61c-8.71,65.95-31.04,81.35-58.82,93.63-2.7,21.21,3.32,61.69,3.32,61.69s-9.56-.97-77.2,7.33c-72.26,8.87-105.03,18.12-105.03,18.12s3.08-24.68-9.26-33.93-55.52-15.42-70.95-37.02-30.84-104.88-58.61-111.05c-10.7-2.38-20.48-4.29-28.47-5.76-7.98,1.47-17.76,3.38-28.47,5.76-27.76,6.17-43.18,89.46-58.61,111.05s-58.61,27.77-70.95,37.02-9.25,33.93-9.25,33.93-32.78-9.25-105.035-18.12c-67.637-8.3-77.2-7.33-77.2-7.33s6.015-40.48,3.316-61.69c-27.781-12.28-50.111-27.68-58.821-93.63-9.726-73.65,28.167-227.18,43.59-242.61s9.254-37.02,9.254-37.02-7.909-16.92-28.79-37.98c-41.837,68.25-110.023,50.32-110.023,50.32l-27.762,49.36s-29.656-16-61.7-30.85c-37.808-17.52-74.034-33.93-74.034-33.93s21.593-27.76,18.508-43.19-24.677-49.35-15.423-80.2,163.491-252.95,203.593-283.8,52.44-33.93,52.44-33.93-42.422-42.37-117.991-94.66c-156.6-108.35-216.9-307.51-210.726-474.086s159.056-492.4,248.514-597.283,289-191.832,471-191.832a22.915,22.915,0,0,0,9.13,0c182,0,381.54,86.951,471,191.832s242.34,430.707,248.51,597.283S1940.82,1248.83,1784.22,1357.18Z" transform="translate(-546.344 -93.969)"/>
  <path class="cls-2" d="M1621.95,1496.76l-94.08,3.09,97.17-49.36,35.47,1.54,9.26,10.8Zm-35.18,90.33,4.24,58.9-18.3,7.2,2.94,85.61-24.07,20.65-111.93,2.65-24.68-23.8-4.85-74.39-17.5-3.85-5.2-60.35,16-18.31,162.62-11.76ZM1432.6,1733.01l18.5,14.1,98.39-4.73,9.58-10.69-2.66-72.09-59.48,23.4-71.46-15.72Zm-11.55-138.45-12.72,12.94,4.14,42.64,82.89,16.21,74.78-26.15-3.37-41.62-16.47-12.33ZM875.062,1462.83l9.255-10.8,35.474-1.54,97.169,49.36-94.084-3.09Zm27.956,287.75,21.593,67.86-18.509,40.1-26.22-7.71,20.051-58.61Zm97.842,536.65s-21.591,10.79-41.642,7.71-29.3-26.22-29.3-26.22l27.762-9.26Zm614.06-18.51s-9.26,23.13-29.31,26.22-41.64-7.71-41.64-7.71l43.18-27.77Zm29.98-476.5,20.05,58.61-26.22,7.71-18.51-40.1,21.59-67.86Z" transform="translate(-546.344 -93.969)"/>
  <path class="cls-3" d="M1963.48,2008.12c-10.54,14.26-37.92,28.02-50.26,21.85-7.45,23.13-60.77,31.42-74.25-3.68-20.78,18.94-37.7.91-43.03-14.19-8.02-22.69-11.85-41.42-7.22-58.52,10.28-12.34,23.11-26.95,56.02-41.35s42.91-17.13,67.33-19.28c21.39-1.88,31.4,18.75,49.26,40.99S1974.02,1993.85,1963.48,2008.12Zm-504.01-566.85c-106.04,20.34-171.3,17.87-190.14,16.48-18.84,1.39-84.1,3.86-190.14-16.48-228.179-43.76-347.559-181.59-324.709-524.122C768.033,714,970.927,332.976,1268.6,318.709c0.12-.006.24,0,0.35,0,0.13-.006.25,0,0.38,0s0.25-.006.38,0c0.11,0,.23-0.005.35,0C1567.73,332.976,1770.63,714,1784.18,917.148,1807.03,1259.68,1687.65,1397.51,1459.47,1441.27ZM742.72,2012.1c-5.334,15.1-21.859,32.97-43.03,14.19-13.477,35.1-66.8,26.81-74.254,3.68-12.339,6.17-39.716-7.59-50.255-21.85s-15.718-51.95,2.148-74.18,27.876-42.87,49.264-40.99c24.421,2.15,34.428,4.89,67.332,19.28s45.738,29.01,56.021,41.35C754.573,1970.68,750.737,1989.41,742.72,2012.1Zm243.8-140.59v77.05c-31.268-5.34-47.263-8.79-47.263-8.79l0.716-73.15S958.341,1868.73,986.519,1871.51Zm38.751,83.33-0.21-79.7c12.73,1.14,26.26,2.29,40.28,3.38,8.63,0.67,20.4,1.42,33.99,2.18v84.64c-4.94-.63-9.76-1.26-14.29-1.87C1062.52,1960.43,1042.65,1957.52,1025.27,1954.84ZM915.4,2347.46a152.733,152.733,0,0,0,11.513-20.55s37.953,0.55,76.733,3.19,94.19,17.36,94.19,17.36a47.347,47.347,0,0,0-2.64,19.39c0.88,10.57,6.17,44.61,3.47,66.7-6.17,11.46-62.52,23.19-107.469,24.96s-112.814,1.76-123.39-5.29-16.745-28.2-14.1-49.36S909.235,2356.27,915.4,2347.46ZM1252.69,1486.1l38.78-3.53-5.29,385.15-30.85-.88Zm132,397.42v88.18c-32.43,3.42-67.03,6.44-97.8,8.05-0.15.39-.28,0.79-0.44,1.17-5.46-.06-11.19-0.2-17.12-0.4-5.93.2-11.66,0.34-17.12,0.4-0.16-.38-0.29-0.78-0.44-1.17-30.77-1.61-65.37-4.63-97.79-8.05v-88.18c44.56,2.13,91.72,4.1,115.35,5.06C1292.97,1887.62,1340.12,1885.65,1384.69,1883.52Zm54.64,81.82V1880.7c13.59-.76,25.37-1.51,33.99-2.18,14.02-1.09,27.55-2.24,40.28-3.38l-0.21,79.7c-17.38,2.68-37.25,5.59-59.76,8.63C1449.09,1964.08,1444.27,1964.71,1439.33,1965.34Zm159.36-98.72,0.71,73.15s-15.99,3.45-47.26,8.79v-77.05C1580.32,1868.73,1598.69,1866.62,1598.69,1866.62Zm-157.87,480.84s55.41-14.71,94.19-17.36,76.73-3.19,76.73-3.19a153.178,153.178,0,0,0,11.52,20.55c6.17,8.81,59.05,35.25,61.69,56.4s-3.52,42.31-14.1,49.36-78.44,7.05-123.39,5.29-101.3-13.5-107.47-24.96c-2.7-22.09,2.59-56.13,3.47-66.7A47.347,47.347,0,0,0,1440.82,2347.46Z" transform="translate(-546.344 -93.969)"/>
  <path class="cls-4" d="M1735.19,950.6c-87.82,20.975-234.06,54.006-444.52,56.086l-5.92,431.98-30.91,3.44-5.96-435.5c-207.08-2.66-351.294-35.24-438.24-56.006-32.561-7.776-32.9-34.06-8.226-30.847,14.487,1.886,128.951,29.81,250.266,44.8,73.53,9.086,147.73,9.9,210.32,9.955l10.42,0,10.41,0c62.59-.052,136.79-0.869,210.32-9.955,121.31-14.991,235.78-42.915,250.27-44.8C1768.09,916.544,1767.75,942.828,1735.19,950.6Zm-460.72,2.052-0.06,0c-0.66,0-1.33,0-1.99,0s-1.33,0-2,0l-0.06,0c-119.41-.369-257.9-33.542-257.9-33.542S947.425,837.5,961.821,668.865c14.357-168.183,195.719-241.612,308.719-246.1,0.26-.014.51-0.027,0.77-0.035,0.05,0,.09,0,0.14-0.006,0.33-.012.64,0,0.97,0s0.64-.015.96,0c0.05,0,.1,0,0.14.006,0.26,0.008.52,0.021,0.77,0.035,113,4.483,294.36,77.912,308.72,246.1,14.4,168.632-50.64,250.249-50.64,250.249S1393.88,952.287,1274.47,952.656Z" transform="translate(-546.344 -93.969)"/>
  <path class="cls-5" d="M1271.93,435.935c139.86,0,253.24,113.379,253.24,253.238s-113.38,253.238-253.24,253.238S1018.7,829.032,1018.7,689.173,1132.07,435.935,1271.93,435.935Zm0,59.96c106.75,0,193.28,86.533,193.28,193.278s-86.53,193.278-193.28,193.278-193.28-86.534-193.28-193.278S1165.19,495.9,1271.93,495.9Z" transform="translate(-546.344 -93.969)"/>
</svg>
