<svg id="Girl_2" data-name="Girl 2" xmlns="http://www.w3.org/2000/svg" width="1399.56" height="2486.969" viewBox="0 0 1399.56 2486.969">
  <defs>
    <style>
      .cls-1 {
        fill: #e7c899;
      }

      .cls-1, .cls-10, .cls-11, .cls-12, .cls-13, .cls-2, .cls-3, .cls-4, .cls-5, .cls-6, .cls-7, .cls-8, .cls-9 {
        fill-rule: evenodd;
      }

      .cls-2 {
        fill: #dcebc4;
      }

      .cls-3 {
        fill: #2f313d;
      }

      .cls-4 {
        fill: #d9a254;
      }

      .cls-5 {
        fill: #474132;
      }

      .cls-6 {
        fill: #dfbb85;
      }

      .cls-7 {
        fill: #e4e410;
      }

      .cls-8 {
        fill: #ea7723;
      }

      .cls-9 {
        fill: #dbb67d;
      }

      .cls-10 {
        fill: #bf5e18;
      }

      .cls-11 {
        fill: #32332d;
      }

      .cls-12 {
        fill: #4e5353;
      }

      .cls-13 {
        fill: #793f79;
      }
    </style>
  </defs>
  <path id="Shape_32_copy_2" data-name="Shape 32 copy 2" class="cls-1" d="M1644.56,979.1c15.59,39.469,46.82,93.559,55.24,114.979,0.75,1.92-11.59.48-10.7,2.29,12.67,13.74,21.9,31.37,22.4,50.07,3.4,3.82,22.35-.98,24,2.83,33.57,77.91,64.12,165.03,71.46,177.66,9.63,16.55,116.82,56.96,130.81,62.97,45.09,19.37,54.64,72.56,2.2,65.68s-112.59-35.94-124.9-35.7,22.46,28.81,23.03,46.47c0.29,8.7-22.53,25.19-47.5,5-21.12-17.07-55.75-29.46-66.29-50-9.53-18.59-19.33-39.33-30.24-59.5-12.87-23.81-36.13-55.75-58.18-83.38-15.12-18.94-25.92-45.17-37.77-74.39-1.28-3.14,12.04-4.8,10.8-7.97-9.38-6.88-18.98-34.25-22.94-51.98-4.68,3.69-9.03,3.88-11.89,4.35-9.24-15.43-50.9-118.14-55.96-135.99C1503.65,961.4,1628.97,939.636,1644.56,979.1ZM1367.82,1789.34c4.9,70.18,5.05,116.05,9.33,171.79,3.48,45.36,189.47,40.09,181.15-27.33-9.55-77.39-7.79-129.76-8.75-172.59C1548.67,1722.03,1363.72,1730.7,1367.82,1789.34ZM907.012,979.1c-15.59,39.469-46.829,93.559-55.242,114.979-0.752,1.92,11.585.48,10.694,2.29-12.667,13.74-21.9,31.37-22.393,50.07-3.408,3.82-22.356-.98-24,2.83-33.57,77.91-64.127,165.03-71.469,177.66-9.622,16.55-116.815,56.96-130.807,62.97-45.088,19.37-54.639,72.56-2.2,65.68s112.582-35.94,124.9-35.7-22.458,28.81-23.035,46.47c-0.284,8.7,22.53,25.19,47.507,5,21.121-17.07,55.744-29.46,66.284-50,9.534-18.59,19.33-39.33,30.239-59.5,12.874-23.81,36.13-55.75,58.187-83.38,15.117-18.94,25.916-45.17,37.769-74.39,1.277-3.14-12.045-4.8-10.8-7.97,9.372-6.88,18.971-34.25,22.935-51.98,4.684,3.69,9.033,3.88,11.89,4.35,9.244-15.43,50.9-118.14,55.953-135.99C1047.92,961.4,922.6,939.636,907.012,979.1ZM1180.77,1789.34c-4.9,70.18-5.05,116.05-9.32,171.79-3.48,45.36-189.477,40.09-181.155-27.33,9.552-77.39,7.784-129.76,8.747-172.59C999.923,1722.03,1184.87,1730.7,1180.77,1789.34Z" transform="translate(-576 -31.531)"/>
  <path id="Shape_34_copy_2" data-name="Shape 34 copy 2" class="cls-2" d="M1373.55,1919.54c-1.01,85.28,21.62,298.2,30.62,373.16s0.57,114.79,5.78,147.58,142.11,60.91,151.91,16.4,3.18-67.93,2.16-117.13,15.08-235.42,1.02-351.08c-6.15-50.63-6.83-79.32-6.83-79.32s-46,20.03-93.06,19.71C1417.99,1928.54,1395.84,1923.93,1373.55,1919.54Zm-197.54,0c1.02,85.28-21.62,298.2-30.61,373.16s-0.58,114.79-5.78,147.58-142.112,60.91-151.915,16.4-3.177-67.93-2.154-117.13-15.088-235.42-1.027-351.08c6.154-50.63,6.836-79.32,6.836-79.32s45.99,20.03,93.06,19.71C1131.58,1928.54,1153.73,1923.93,1176.01,1919.54Z" transform="translate(-576 -31.531)"/>
  <path id="Shape_35_copy_2" data-name="Shape 35 copy 2" class="cls-3" d="M1490.42,2350.61c-38,1.23-69.65,13.49-85.4,26.24-8.56,19.36-10.27,57.4-10.27,129.49,44.62,19.82,170.41,14.01,194.5-7,1.1-68.53-12.73-105.26-17.36-127.23C1558.31,2361.9,1525.25,2349.49,1490.42,2350.61Zm-429.9,0c38,1.23,69.65,13.49,85.4,26.24,8.56,19.36,10.27,57.4,10.27,129.49-44.62,19.82-170.407,14.01-194.5-7-1.093-68.53,12.734-105.26,17.367-127.23C992.626,2361.9,1025.69,2349.49,1060.52,2350.61Z" transform="translate(-576 -31.531)"/>
  <path id="Shape_33_copy" data-name="Shape 33 copy" class="cls-4" d="M1696.28,1366.17c18.11,0.06,95.58-28.66,105.35-43.65-4.51,25.09-30.41,36.96-47.22,43.09S1710.08,1372.59,1696.28,1366.17Zm-332.1,351.26c4.21,56,6.04,90.04,6.04,90.04s49.97,1.61,95.46-3.5c42.67-4.78,83.92-25.74,83.92-25.74l-2.16-73.36S1377.08,1707.46,1364.18,1717.43Zm-510.9-351.26c-18.109.06-95.576-28.66-105.348-43.65,4.515,25.09,30.413,36.96,47.22,43.09S839.492,1372.59,853.285,1366.17Zm332.105,351.26c-4.21,56-6.05,90.04-6.05,90.04s-49.96,1.61-95.45-3.5c-42.67-4.78-83.923-25.74-83.923-25.74l2.163-73.36S1172.48,1707.46,1185.39,1717.43Zm448.82-630.54c-28.64,10.37-43.98,30.29-45.6,51.57s9.66,38.99,9.66,38.99c-0.04.05-1.8-52.3,36.15-68.04,34.44-14.28,60.6-4.54,67.64,3.28C1690.9,1090.16,1664.09,1076.07,1634.21,1086.89Zm43.1,131.26c28.64-10.36,38.48-29.54,40.1-50.82s-6.91-34.36-6.91-34.36,4.53,46.94-33.4,62.66c-34.44,14.28-62.6,3.54-69.64-4.28C1618.62,1213.88,1647.43,1228.97,1677.31,1218.15ZM918.286,1086.89c28.657,10.36,39.121,29.4,44.8,49.79,5.724,20.56-7.6,39.29-7.6,39.29s0.522-50.84-37.408-66.56c-34.446-14.27-61.856-3.79-68.895,4.03C860.342,1090.91,888.4,1076.08,918.286,1086.89Zm-43.1,131.26c-28.641-10.36-38.476-29.54-40.1-50.82s7.157-36.11,7.157-36.11-4.783,48.69,33.147,64.41c34.445,14.28,63.606,3.54,70.644-4.28C934.878,1213.88,905.064,1228.97,875.184,1218.15Z" transform="translate(-576 -31.531)"/>
  <path class="cls-5" d="M1616.72,1096.47a67.38,67.38,0,0,1,11.09-6.79,46.3,46.3,0,0,1,10.45-3.22l38.24,76.7-16.37,9.6Zm-686.8,0a67.313,67.313,0,0,0-11.088-6.79,46.359,46.359,0,0,0-10.451-3.22l-38.237,76.7,16.366,9.6Z" transform="translate(-576 -31.531)"/>
  <path id="neck" class="cls-6" d="M1443.55,610.787c-0.38,14.627-51.51,26.636-92.31,38.283,0.15,36.438.38,68.751,0.38,68.751s-162.7,6.674-162.7-2.835c0-5.335-.36-62.8-0.36-62.8s-85.74-31.076-87.02-37.176C1098.61,601.11,1444.28,582.261,1443.55,610.787Zm-154.23,560.8" transform="translate(-576 -31.531)"/>
  <path class="cls-7" d="M1515.66,1049.37c-13.08-33.43-84.92-145-84.92-145l-157.91-28.556-157.9,28.556s-71.84,111.573-84.93,145C995.715,1024.56,873.341,967.2,873.341,967.2s62.418-107.01,108.4-161.631c17.26-20.5,44.993-27.469,63.973-34.732,26.88-10.284,57.77-22.577,76.04-30.45,8.49-3.66,12.17-14.823,12.17-14.823l38.95-44.526,99.96,9.563,99.97-9.563,38.95,44.526s3.67,11.163,12.17,14.823c18.27,7.873,49.16,20.166,76.03,30.45,18.99,7.263,46.72,14.227,63.98,34.732,45.98,54.621,108.4,161.631,108.4,161.631S1549.95,1024.56,1515.66,1049.37Z" transform="translate(-576 -31.531)"/>
  <path class="cls-8" d="M1559.45,1727.95c-126.41,35.96-277.35,28.11-286.91,27.57-9.55.54-160.49,8.39-286.9-27.57-65.659-18.68-149.689-63.4-149.689-63.4s48.367-101.34,83.662-174.58c55.664-115.51,82.2-214.11,101.059-258.73,8.97-21.21,19.53-39.76,35.26-75.04,0.42-7.16-6.31-34.94-8.59-41.8-8.27-24.85-9.14-76.41-9.99-115.665,6.49-28.342,16.32-104.826,15.65-134.226-1.3-57.615-2.41-105.293-2.41-105.293l63.01-20.106s29.11,5.865,56.21,8.2c44.17,3.805,96.68,5.359,102.73,5.53,6.06-.171,58.57-1.725,102.73-5.53,27.1-2.335,56.22-8.2,56.22-8.2l63.01,20.106s-1.11,47.678-2.42,105.293c-0.66,29.4,9.17,105.884,15.66,134.226-0.85,39.255-1.73,90.815-9.99,115.665-2.28,6.86-9.01,34.64-8.59,41.8,15.73,35.28,26.29,53.83,35.26,75.04,18.85,44.62,45.39,143.22,101.06,258.73,35.29,73.24,83.66,174.58,83.66,174.58S1625.11,1709.27,1559.45,1727.95Z" transform="translate(-576 -31.531)"/>
  <path class="cls-9" d="M1489.13,445.012c6.82-15.6,25.35-59.49,39.01-48.762s21.09,35.109,21.09,58.515-21.15,61.989-40.6,59.49C1492.16,512.138,1482.3,460.616,1489.13,445.012Zm-430.94,0c-6.83-15.6-25.36-59.49-39.01-48.762s-21.093,35.109-21.093,58.515,21.153,61.989,40.593,59.49C1055.15,512.138,1065.01,460.616,1058.19,445.012Z" transform="translate(-576 -31.531)"/>
  <path class="cls-10" d="M1545.32,1516.83l-106.78-351.09,2.74-.79c-9.55,1.28-20.76,2.69-33.12,4.08l75.72,397.54-87.41-396.27c-29.6,3.1-64.33,5.84-98.21,6.45l29.1,398.59-40.87-398.44c-42.01.33-81.17-1.48-116.36-4.23l-86.89,393.9,75.21-394.85c-13.78-1.18-26.91-2.49-39.29-3.85l-106.14,348.96,95.5-350.16c-9.25-1.08-18.05-2.17-26.34-3.24,6.77,0.16,16.08.37,27.05,0.62l0.34-1.24,4.74,1.36c51.08,1.15,132.62,2.92,167.63,3.05,53.21,0.19,192.93-7.19,192.93-7.19s-9.72,1.62-25.8,3.86Z" transform="translate(-576 -31.531)"/>
  <path class="cls-11" d="M1628.69,673.221c-12.99,30.949-57.08,74.835-160.15,44.313-27.31-8.087-17.11-47.1-17.11-47.1a108.043,108.043,0,0,1,18.39-9.829c9.75-3.9,8.58-43.445,7.6-48.321-68.6,34.922-163.54,29.731-204.88,12.056-41.33,17.675-136.27,22.866-204.88-12.056-0.97,4.876-2.14,44.42,7.61,48.321a108.043,108.043,0,0,1,18.39,9.829s10.2,39.014-17.11,47.1c-103.073,30.522-147.158-13.364-160.156-44.313-13.087-31.161,13.76-82.9,33.265-105.327s50.831-42.949,60.711-59.369c10.3-17.127,8.53-91.795-3.17-116.176S974.345,336.7,991.9,211.866,1125.57,30.1,1268.14,31.567a31.563,31.563,0,0,0,8.81,0c142.57-1.463,258.68,55.467,276.24,180.3s-3.6,156.1-15.3,180.483-13.47,99.049-3.17,116.176c9.87,16.42,41.2,36.938,60.71,59.369S1641.78,642.06,1628.69,673.221Z" transform="translate(-576 -31.531)"/>
  <path class="cls-12" d="M1105.5,81.55c-27,6.949-58.45,38.949-72.23,63.635a140.293,140.293,0,0,0-15.42,42.85s31.94-19.749,45.59-12.922,34.14,79.971,38.04,91.674,7.8,58.515,7.8,71.193,10.73,11.7,10.73,11.7-13.78,27.307-23.53,41.936-16.52,33.707-19.38,44.861c18.53-13.653,40.96-40.96,50.71-67.292s6.64-40.107-.18-44.983-31.03-125.686-38.83-143.24-8.78-11.7-7.8-36.085S1085.08,103.005,1105.5,81.55Zm5,359.868c-26.56,23.143-36.33,43.825-36.33,43.825s37.06-15.6,49.74-31.208a64.918,64.918,0,0,0,14.02-32.427A223.237,223.237,0,0,0,1110.5,441.418ZM1442.51,81.55c27,6.949,58.46,38.949,72.23,63.635a139.971,139.971,0,0,1,15.42,42.85s-31.94-19.749-45.59-12.922-34.13,79.971-38.03,91.674-7.81,58.515-7.81,71.193-10.72,11.7-10.72,11.7,13.77,27.307,23.52,41.936,16.52,33.707,19.39,44.861c-18.53-13.653-40.96-40.96-50.72-67.292s-6.64-40.107.19-44.983,31.02-125.686,38.82-143.24,8.78-11.7,7.81-36.085S1462.93,103.005,1442.51,81.55Zm-5,359.868c26.57,23.143,36.33,43.825,36.33,43.825s-37.06-15.6-49.74-31.208a64.956,64.956,0,0,1-14.01-32.427A223.534,223.534,0,0,1,1437.51,441.418Z" transform="translate(-576 -31.531)"/>
  <path class="cls-13" d="M1537.23,558.526a27.719,27.719,0,0,1-10.15-1.922,23.067,23.067,0,0,1-24.76,29.385,22.135,22.135,0,1,1-20.49-13.749c0.65,0,1.3.034,1.94,0.09a23.085,23.085,0,0,1,27.59-31.445A27.8,27.8,0,1,1,1537.23,558.526ZM1067.83,616.4a22.085,22.085,0,0,1-20.49-30.412,23.389,23.389,0,0,1-2.59.149,23.082,23.082,0,0,1-22.17-29.534,27.788,27.788,0,1,1,15.72-15.719,23.095,23.095,0,0,1,27.59,31.445c0.64-.056,1.29-0.09,1.94-0.09A22.081,22.081,0,1,1,1067.83,616.4Z" transform="translate(-576 -31.531)"/>
</svg>
