<svg id="Girl_1" data-name="Girl 1" xmlns="http://www.w3.org/2000/svg" width="1403.062" height="2482.661" viewBox="0 0 1403.062 2482.661">
  <defs>
    <style>
      .cls-1 {
        fill: #e7c899;
      }

      .cls-1, .cls-10, .cls-11, .cls-12, .cls-13, .cls-14, .cls-15, .cls-16, .cls-17, .cls-18, .cls-19, .cls-2, .cls-20, .cls-21, .cls-3, .cls-4, .cls-5, .cls-6, .cls-7, .cls-8, .cls-9 {
        fill-rule: evenodd;
      }

      .cls-2 {
        fill: #dcebc4;
      }

      .cls-3 {
        fill: #2f313d;
      }

      .cls-4 {
        fill: #d9a254;
      }

      .cls-5 {
        fill: #474132;
      }

      .cls-6 {
        fill: #dfbb85;
      }

      .cls-7 {
        fill: #e4e410;
      }

      .cls-8 {
        fill: #b6b607;
      }

      .cls-9 {
        fill: #ea7723;
      }

      .cls-10 {
        fill: #bf5e18;
      }

      .cls-11 {
        fill: #32332d;
      }

      .cls-12 {
        fill: #444848;
      }

      .cls-13 {
        fill: #a06de5;
      }

      .cls-14 {
        fill: #dbb67d;
      }

      .cls-15 {
        fill: #793f79;
      }

      .cls-16 {
        fill: #edb77d;
      }

      .cls-17 {
        fill: #faf7f3;
      }

      .cls-18 {
        fill: #282828;
      }

      .cls-19 {
        fill: #b5926c;
      }

      .cls-20 {
        fill: #fff;
      }

      .cls-21 {
        fill: #af422d;
      }
    </style>
  </defs>
  <path id="Shape_32_copy_2" data-name="Shape 32 copy 2" class="cls-1" d="M1646.74,982.026c15.59,39.464,46.83,93.564,55.24,114.984,0.76,1.91-11.58.48-10.69,2.29,12.67,13.73,21.9,31.37,22.39,50.06,3.41,3.82,22.36-.97,24,2.84,33.57,77.91,64.13,165.03,71.47,177.66,9.62,16.55,116.82,56.95,130.81,62.96,45.08,19.38,54.64,72.56,2.19,65.68s-112.58-35.93-124.9-35.69,22.46,28.81,23.04,46.47c0.28,8.7-22.53,25.18-47.51,5-21.12-17.07-55.74-29.46-66.28-50.01-9.54-18.58-19.33-39.32-30.24-59.5-12.87-23.81-36.13-55.74-58.19-83.38-15.11-18.93-25.91-45.16-37.77-74.38-1.27-3.15,12.05-4.8,10.8-7.97-9.37-6.88-18.97-34.25-22.93-51.99-4.69,3.69-9.04,3.89-11.89,4.36-9.25-15.43-50.9-118.15-55.96-135.99C1505.84,964.324,1631.15,942.561,1646.74,982.026ZM1368.51,1792.26c4.9,70.19,5.05,116.06,9.32,171.79,3.48,45.37,189.48,40.09,181.15-27.33-9.55-77.38-7.78-129.76-8.74-172.59C1549.36,1724.95,1364.41,1733.62,1368.51,1792.26ZM905.7,982.026c-15.59,39.464-46.829,93.564-55.243,114.984-0.752,1.91,11.586.48,10.695,2.29-12.667,13.73-21.9,31.37-22.393,50.06-3.408,3.82-22.356-.97-24,2.84-33.57,77.91-64.127,165.03-71.469,177.66-9.622,16.55-116.815,56.95-130.808,62.96-45.087,19.38-54.638,72.56-2.2,65.68s112.583-35.93,124.9-35.69-22.459,28.81-23.035,46.47c-0.285,8.7,22.53,25.18,47.506,5,21.121-17.07,55.745-29.46,66.285-50.01,9.533-18.58,19.33-39.32,30.239-59.5,12.873-23.81,36.129-55.74,58.187-83.38,15.117-18.93,25.916-45.16,37.769-74.38,1.277-3.15-12.045-4.8-10.8-7.97,9.372-6.88,18.971-34.25,22.934-51.99,4.685,3.69,9.034,3.89,11.89,4.36,9.245-15.43,50.9-118.15,55.958-135.99C1046.6,964.324,921.288,942.561,905.7,982.026ZM1181.46,1792.26c-4.91,70.19-5.05,116.06-9.33,171.79-3.48,45.37-189.471,40.09-181.149-27.33,9.549-77.38,7.784-129.76,8.747-172.59C1000.61,1724.95,1185.55,1733.62,1181.46,1792.26Z" transform="translate(-574.688 -34.469)"/>
  <path id="Shape_34_copy_2" data-name="Shape 34 copy 2" class="cls-2" d="M1374.24,1922.46c-1.02,85.29,21.62,298.21,30.61,373.17s0.58,114.78,5.79,147.58,142.11,60.9,151.91,16.4,3.18-67.94,2.15-117.13,15.09-235.42,1.03-351.09c-6.15-50.62-6.84-79.32-6.84-79.32s-45.99,20.04-93.06,19.72C1418.68,1931.47,1396.52,1926.85,1374.24,1922.46Zm-197.54,0c1.02,85.29-21.62,298.21-30.61,373.17s-0.58,114.78-5.79,147.58-142.106,60.9-151.91,16.4-3.176-67.94-2.153-117.13-15.088-235.42-1.028-351.09c6.155-50.62,6.837-79.32,6.837-79.32s45.994,20.04,93.064,19.72C1132.26,1931.47,1154.42,1926.85,1176.7,1922.46Z" transform="translate(-574.688 -34.469)"/>
  <path id="Shape_35_copy_2" data-name="Shape 35 copy 2" class="cls-3" d="M1491.11,2353.54c-58.74,1.91-100.63,21.13-105.15,74.63s4.24,62.22,4.24,77.5c44.61,19.82,182.9,12.06,206.99-8.96,8-32.6-6.68-82.03-17.22-103.05S1549.84,2351.63,1491.11,2353.54Zm-75.31,70.69s22.81-41.57,69.47-44.3c49.04-2.87,75.12,32.84,75.12,32.84Zm-355.97-70.69c58.74,1.91,100.63,21.13,105.15,74.63s-4.24,62.22-4.24,77.5c-44.62,19.82-182.9,12.06-206.994-8.96-8-32.6,6.684-82.03,17.227-103.05S1001.1,2351.63,1059.83,2353.54Zm75.31,70.69s-22.81-41.57-69.47-44.3c-49.04-2.87-75.118,32.84-75.118,32.84Z" transform="translate(-574.688 -34.469)"/>
  <path id="Shape_33_copy" data-name="Shape 33 copy" class="cls-4" d="M1696.97,1369.09c18.11,0.07,95.57-28.66,105.35-43.64-4.52,25.08-30.42,36.96-47.22,43.08S1710.76,1375.52,1696.97,1369.09Zm-332.1,351.27c4.2,56,6.04,90.04,6.04,90.04s49.96,1.6,95.45-3.5c42.68-4.79,83.93-25.75,83.93-25.75l-2.16-73.36S1377.77,1710.39,1364.87,1720.36Zm-510.9-351.27c-18.11.07-95.576-28.66-105.348-43.64,4.515,25.08,30.412,36.96,47.22,43.08S840.177,1375.52,853.971,1369.09Zm332.1,351.27c-4.2,56-6.04,90.04-6.04,90.04s-49.96,1.6-95.45-3.5c-42.68-4.79-83.93-25.75-83.93-25.75l2.16-73.36S1173.17,1710.39,1186.07,1720.36Zm448.14-633.47c-28.64,10.37-43.98,30.29-45.6,51.57s9.66,38.99,9.66,38.99c-0.04.05-1.8-52.3,36.15-68.04,34.44-14.28,60.6-4.54,67.64,3.28C1690.9,1090.16,1664.09,1076.07,1634.21,1086.89Zm43.1,131.26c28.64-10.36,38.48-29.54,40.1-50.82s-6.91-34.36-6.91-34.36,4.53,46.94-33.4,62.66c-34.44,14.28-62.6,3.54-69.64-4.28C1618.62,1213.88,1647.43,1228.97,1677.31,1218.15ZM918.286,1086.89c28.657,10.36,39.121,29.4,44.8,49.79,5.724,20.56-7.6,39.29-7.6,39.29s0.522-50.84-37.408-66.56c-34.446-14.27-61.856-3.79-68.895,4.03C860.342,1090.91,888.4,1076.08,918.286,1086.89Zm-43.1,131.26c-28.641-10.36-38.476-29.54-40.1-50.82s7.157-36.11,7.157-36.11-4.783,48.69,33.147,64.41c34.445,14.28,63.606,3.54,70.644-4.28C934.878,1213.88,905.064,1228.97,875.184,1218.15Z" transform="translate(-574.688 -34.469)"/>
  <path class="cls-5" d="M1617.41,1099.4a67.5,67.5,0,0,1,11.08-6.8,47.061,47.061,0,0,1,10.45-3.22l38.24,76.7-16.36,9.6Zm-686.8,0a67.732,67.732,0,0,0-11.087-6.8,46.964,46.964,0,0,0-10.451-3.22l-38.237,76.7,16.366,9.6Z" transform="translate(-574.688 -34.469)"/>
  <path id="neck" class="cls-6" d="M1352.07,643.031c-0.73,28.526.23,77.715,0.23,77.715s-162.7,6.675-162.7-2.834,0.28-64.687-2.65-78.584S1352.8,614.505,1352.07,643.031Zm-62.06,531.479" transform="translate(-574.688 -34.469)"/>
  <path class="cls-7" d="M1516.35,1052.29c-13.09-33.43-84.92-145-84.92-145l-157.91-28.556-157.91,28.556s-71.83,111.567-84.92,145c-34.289-24.81-156.663-82.16-156.663-82.16s62.417-107.01,108.4-161.631c17.26-20.5,45-27.469,63.977-34.732,26.88-10.284,57.77-22.577,76.04-30.45,8.49-3.66,12.17-14.823,12.17-14.823l38.95-44.527s38.4,15.951,60.42,25.267c15.94,6.745,34.7,9.848,39.54,10.572,4.84-.724,23.6-3.827,39.54-10.572,22.02-9.316,60.42-25.267,60.42-25.267l38.95,44.527s3.68,11.163,12.17,14.823c18.27,7.873,49.16,20.166,76.04,30.45,18.98,7.263,46.72,14.227,63.98,34.732,45.97,54.621,108.39,161.631,108.39,161.631S1550.64,1027.48,1516.35,1052.29Z" transform="translate(-574.688 -34.469)"/>
  <path class="cls-8" d="M1321.96,799.551c-31.62,4.519-48.64-43.392-49.34-50.371-0.03-.28-0.05-0.562-0.08-0.844-0.02.282-.04,0.564-0.07,0.844-0.7,6.979-17.72,54.89-49.34,50.371-50.94-7.281-88.72-35.271-94.98-57.551,12.56,20.324,52.53,41.287,105.41,47.092,19.19,2.108,38.91-54.566,38.91-54.566s0.03,0.36.07,0.993c0.05-.633.08-0.993,0.08-0.993s19.72,56.674,38.91,54.566c52.88-5.8,92.85-26.768,105.41-47.092C1410.68,764.28,1372.9,792.27,1321.96,799.551Z" transform="translate(-574.688 -34.469)"/>
  <path class="cls-9" d="M1560.14,1730.88c-123.84,35.22-271.19,28.41-286.13,27.61-14.94.8-162.3,7.61-286.132-27.61-65.659-18.68-149.689-63.4-149.689-63.4s48.367-101.35,83.662-174.59c55.664-115.5,82.2-214.1,101.059-258.72,8.97-21.21,19.53-39.76,35.26-75.04,0.42-7.16-6.31-34.95-8.59-41.8-8.27-24.86-9.14-76.42-9.99-115.67,6.49-28.341,16.32-104.825,15.65-134.226-1.3-57.615-2.41-105.292-2.41-105.292l63.01-20.106s33.21,69,40.96,80.12c7.25,10.392,104.56,12.97,117.21,13.262,12.64-.292,109.96-2.87,117.2-13.262,7.75-11.117,40.97-80.12,40.97-80.12l63.01,20.106s-1.12,47.677-2.42,105.292c-0.67,29.4,9.16,105.885,15.65,134.226-0.85,39.25-1.72,90.81-9.98,115.67-2.28,6.85-9.02,34.64-8.6,41.8,15.74,35.28,26.3,53.83,35.26,75.04,18.86,44.62,45.4,143.22,101.06,258.72,35.3,73.24,83.67,174.59,83.67,174.59S1625.79,1712.2,1560.14,1730.88Z" transform="translate(-574.688 -34.469)"/>
  <path class="cls-10" d="M1546.01,1519.75l-106.79-351.09,2.75-.78c-9.56,1.28-20.76,2.69-33.12,4.08l75.72,397.53-87.41-396.26c-29.6,3.09-64.33,5.84-98.21,6.45l29.09,398.59-40.86-398.45c-42.02.33-81.17-1.48-116.37-4.22l-86.89,393.89,75.21-394.84c-13.77-1.18-26.91-2.49-39.28-3.85l-106.14,348.95,95.49-350.16c-9.24-1.07-18.04-2.16-26.34-3.23,6.78,0.15,16.09.37,27.06,0.62l0.34-1.24,4.74,1.35c51.08,1.16,132.62,2.93,167.62,3.05,53.22,0.19,192.94-7.19,192.94-7.19s-9.73,1.63-25.81,3.87Z" transform="translate(-574.688 -34.469)"/>
  <path class="cls-11" d="M1629.38,676.147c-13,30.949-57.08,74.835-160.15,44.313-27.32-8.088-17.12-47.1-17.12-47.1a107.935,107.935,0,0,1,18.4-9.828c9.75-3.9,8.57-43.445,7.6-48.321s-84.85-167.271-120.93-181.9-76.63-149.849-82.48-158.626a18.629,18.629,0,0,1-1.28-2.782,17.628,17.628,0,0,1-1.28,2.782c-5.85,8.777-46.39,144-82.47,158.626s-119.96,177.024-120.94,181.9-2.14,44.419,7.61,48.321a108.079,108.079,0,0,1,18.39,9.828s10.2,39.014-17.11,47.1C974.547,750.982,930.462,707.1,917.464,676.147c-13.087-31.161,13.76-82.9,33.265-105.327s50.831-42.949,60.711-59.369c10.3-17.128,8.53-91.8-3.17-116.177s-32.855-55.65-15.3-180.482,133.67-181.762,276.24-180.3a31.237,31.237,0,0,0,8.42,0c142.57-1.463,258.69,55.467,276.24,180.3s-3.59,156.1-15.3,180.482-13.47,99.049-3.16,116.177c9.87,16.42,41.2,36.938,60.7,59.369S1642.47,644.986,1629.38,676.147Z" transform="translate(-574.688 -34.469)"/>
  <path id="hair" class="cls-12" d="M1511.31,183.033c-8.61-6.341-16.84-14.089-28.05-21.838-1.59-6.831-3.27-13.412-4.93-19.453a191.9,191.9,0,0,0,20.21,7.661c11.96,3.644,7.3-28.8,7.3-28.8s19.6,39.757,27.97,67.27c7.75,25.5,10.92,60.671,10.92,60.671S1533.41,199.323,1511.31,183.033Zm-81.9-45.968c-0.77-.206-1.56-0.406-2.34-0.606-0.87-5.946-1.8-11.569-2.74-16.652,17.46,5.654,31.48,11.933,44.04,17.542,1.56,5.363,3.17,11.259,4.71,17.382C1461.98,148.278,1448.11,142.106,1429.41,137.065ZM1207.29,131.8l0.48-21.993a583.776,583.776,0,0,1,83.03-6.937c56.21-.788,95.07,5.645,124.52,14.177,0.98,5.237,2.01,11.135,2.97,17.361C1366.76,123.473,1280.59,122.242,1207.29,131.8Zm-98.5,24.4c0.19-1.263.39-2.528,0.59-3.8,0.88-5.515,1.86-10.93,2.87-16.04,18.73-8.508,48.19-18.323,86.94-25.13-0.33,6.654-.64,14.15-0.92,21.811C1163.07,138.142,1131.4,145.815,1108.79,156.2Zm-44.35,21.13c0.46-2.436.93-4.889,1.43-7.349,1.67-8.359,3.57-16.478,5.38-23.631a67.129,67.129,0,0,0,31.63-5.573c-1.14,6.244-2.23,12.895-3.2,19.685C1087.27,166.19,1075.25,171.293,1064.44,177.328ZM1036.9,199.2a159.04,159.04,0,0,0-17.29,26.213,213.976,213.976,0,0,1,5.17-28.738c5.31-20.8,15.46-44.038,23.12-60.011,3.65,3.9,8.88,6.718,15.07,8.317-2.82,10.974-5.72,24.441-8.1,38.192A83,83,0,0,0,1036.9,199.2Zm-17.79-7.617a331.847,331.847,0,0,0-7.74,51.211,277.306,277.306,0,0,0-14.319,45.377c-0.137-27.079-2.147-50.177,14.5-105.2,10.87-35.957,21.26-51.45,30.82-60.428a20.622,20.622,0,0,0,1.55,8.012C1037.03,145.666,1024.89,167.773,1019.11,191.58Z" transform="translate(-574.688 -34.469)"/>
  <path class="cls-13" d="M1469.48,150.514l-0.21,44.549-33.89-4.3-0.14.525-19.47-21.1a19.739,19.739,0,1,1,.64-8.64l17.68-16.528,0.76,2.819-0.02-3.55Zm-28.8,34.378,23.04,2.926L1464.81,156l-24.59-4.023ZM1396.93,151.1a13.326,13.326,0,1,0,13.32,13.326A13.329,13.329,0,0,0,1396.93,151.1Zm22.24,15.044,15.96,17.2-0.24-30.649Z" transform="translate(-574.688 -34.469)"/>
  <path class="cls-14" d="M1489.81,447.938c6.83-15.6,25.36-59.49,39.01-48.763s21.09,35.109,21.09,58.515-21.15,61.99-40.59,59.491C1492.84,515.064,1482.99,463.542,1489.81,447.938Zm-430.94,0c-6.82-15.6-25.35-59.49-39.01-48.763s-21.088,35.109-21.088,58.515,21.148,61.99,40.6,59.491C1055.84,515.064,1065.7,463.542,1058.87,447.938Z" transform="translate(-574.688 -34.469)"/>
  <path class="cls-15" d="M1537.87,561.451a27.719,27.719,0,0,1-10.15-1.922,23.067,23.067,0,0,1-24.76,29.385,22.135,22.135,0,1,1-20.49-13.748c0.65,0,1.3.034,1.94,0.09A23.085,23.085,0,0,1,1512,543.811,27.8,27.8,0,1,1,1537.87,561.451Zm-469.4,57.875a22.085,22.085,0,0,1-20.49-30.412,23.08,23.08,0,0,1-24.76-29.385,27.786,27.786,0,1,1,15.72-15.718,23.095,23.095,0,0,1,27.59,31.445c0.64-.056,1.29-0.09,1.94-0.09A22.08,22.08,0,1,1,1068.47,619.326Z" transform="translate(-574.688 -34.469)"/>
  <path class="cls-1" d="M1499.9,539.912c-5.73,34.831-35.54,78.409-81.62,94.5s-92.94,29.212-104.64,34.332a101.945,101.945,0,0,1-40.03,8.353,0.013,0.013,0,0,0-.01.013c-0.2,0-.4-0.009-0.6-0.006s-0.4.011-.59,0.006a0.226,0.226,0,0,1-.02-0.013,101.983,101.983,0,0,1-40.03-8.353c-11.7-5.12-58.56-18.24-104.64-34.332s-75.89-59.669-81.62-94.5c-7.32-44.478,11.46-73.475,8.66-102.194-3.6-36.942-8.64-72.363-6.45-95.195,2.18-22.676,31.86-43.8,62.72-67.018,31.3-23.547,78.93-43.506,170.47-44.881,89-1.337,130.22,23.736,158.54,44.7,31.05,22.974,55.47,44.525,57.65,67.2,2.2,22.832-2.84,58.253-6.45,95.2C1488.44,466.437,1507.22,495.434,1499.9,539.912Z" transform="translate(-574.688 -34.469)"/>
  <path class="cls-16" d="M1435.65,480.353c24.55,0,44.44,21.041,44.44,46.995s-19.89,47-44.44,47-44.43-21.04-44.43-46.995S1411.11,480.353,1435.65,480.353Zm-324.75,0c24.54,0,44.43,21.041,44.43,46.995s-19.89,47-44.43,47-44.44-21.04-44.44-46.995S1086.36,480.353,1110.9,480.353Z" transform="translate(-574.688 -34.469)"/>
  <path class="cls-17" d="M1378.95,361.747c-16.58,2.926-23.65,6.047-29.99,14.336s-12.19,15.787-14.14,20.664,1.87,9.984,12.6,12.91,57.97,7.35,68.71,3.815c13.23-4.352,35.48-13.69,36.94-18.078s-15.11-20.481-30.72-26.332S1395.53,358.822,1378.95,361.747Zm-214.09,0c16.57,2.926,25.84,4.877,32.18,13.166s10.73,12.679,12.68,17.555-2.93,16.091-13.66,19.017-59,4.876-70.22,3.414-33.64-15.117-35.1-19.5,15.11-20.481,30.72-26.332S1148.28,358.822,1164.86,361.747Z" transform="translate(-574.688 -34.469)"/>
  <path class="cls-18" d="M1387.2,362.226a28.435,28.435,0,1,1-28.44,28.435A28.433,28.433,0,0,1,1387.2,362.226Zm-229.67,0a28.435,28.435,0,1,1-28.44,28.435A28.433,28.433,0,0,1,1157.53,362.226Z" transform="translate(-574.688 -34.469)"/>
  <path class="cls-19" d="M1322.88,370.525c0.48-3.414,9.7-17.148,19.01-22.431,14.24-8.077,37-8.29,50.38-7.1-20.45,3.23-37.33,7.07-44.16,10S1333.76,359,1322.88,370.525Zm-16.58-57.053c10.72-8.289,19.01-9.752,38.52-9.265s50.32,5.639,72.5,8.077c-17.7-2.073-36.9.213-52.51-.275s-28.31-2.163-32.7-1.676S1318.06,311.217,1306.3,313.472Zm-82.44,57.053c-0.49-3.414-9.71-17.148-19.02-22.431-14.23-8.077-37-8.29-50.38-7.1,20.45,3.23,37.34,7.07,44.16,10S1212.98,359,1223.86,370.525Zm16.58-54.127c-10.73-8.29-19.02-9.752-38.53-9.265s-50.31,5.638-72.5,8.077c17.71-2.073,36.91.213,52.51-.275s28.31-2.164,32.7-1.676S1228.67,314.143,1240.44,316.4Zm102.31,67.164c8.2-15.214,30.68-29.105,48.35-30.318,34.63-2.377,50.95,11.374,62.06,18.4s12.47,11.337,12.47,11.337l-1.17,7.607s-19.89-16.384-32.18-22.236-35.8-8.923-48.68-7.168S1366.16,365.166,1342.75,383.562Zm-134.56,0c-8.2-15.214-30.68-29.105-48.35-30.318-34.64-2.377-50.95,11.374-62.06,18.4s-12.48,11.337-12.48,11.337l1.18,7.607s19.89-16.384,32.18-22.236,35.8-8.923,48.68-7.168S1184.78,365.166,1208.19,383.562Z" transform="translate(-574.688 -34.469)"/>
  <path class="cls-20" d="M1392.64,370.729a9.646,9.646,0,1,1-9.65,9.646A9.645,9.645,0,0,1,1392.64,370.729Zm-20.48,4.114a6.538,6.538,0,1,1-6.54,6.537A6.531,6.531,0,0,1,1372.16,374.843Zm-205.54-4.114a9.646,9.646,0,1,1-9.64,9.646A9.647,9.647,0,0,1,1166.62,370.729Zm-20.48,4.114a6.538,6.538,0,1,1-6.53,6.537A6.54,6.54,0,0,1,1146.14,374.843Z" transform="translate(-574.688 -34.469)"/>
  <path class="cls-21" d="M1328.73,540.218c-7.32-1.463-7.8-3.413-11.71,3.414s-16.09,20.968-26.81,19.992a80.435,80.435,0,0,0-12.05-.2,1.014,1.014,0,0,1-.66.684c-1.05,0-2.43-.138-4.13-0.3-1.71.163-3.08,0.3-4.13,0.3a1,1,0,0,1-.67-0.684,80.291,80.291,0,0,0-12.04.2c-10.73.976-22.92-13.165-26.82-19.992s-4.39-4.877-11.7-3.414-22.5-7.558-20.06-12.922,6.4,1.707,9.82,3.657,8.29,2.926,17.06-5.363,23.9-28.283,29.26-27.307c5.07,0.921,9.36,4.37,19.28,5.159,9.92-.789,14.2-4.238,19.27-5.159,5.37-.976,20.48,19.017,29.26,27.307s13.65,7.314,17.07,5.363,7.37-9.021,9.81-3.657S1336.04,541.681,1328.73,540.218Z" transform="translate(-574.688 -34.469)"/>
  <path class="cls-18" d="M1450.7,402.281c-18.23,10.332-44.53,14.451-44.53,14.451s1.01-.474,2.74-1.335c-9.04,2.3-18.57,4.238-24.24,4-24.05-1.017-47.07-10.969-51.45-16.968,5.85,2.926,35.01,12.472,46.71,12.959,7,0.292,24.3-2.176,37.08-4.208,8.98-4.881,21.76-12.5,31.27-20.917-0.83-3.683-8.34-19.553-32.26-23.369-23.35-3.727-30.45-5.955-56.75,5.857-8.98,4.031-15.39,14.367-21.77,23.862-1.97,2.929-9.44,5.269-11.7,8.157,1.82-5.157,8.66-11.129,11.5-15.895,8.51-14.28,18.29-21.856,29.24-25.486,20.66-6.845,56.38-8.576,77.76,10.551,18.84,16.864,24.44,14.751,24.44,14.751S1458.67,397.763,1450.7,402.281ZM1322.88,535.83c-3.42-.488-14.14-3.414-17.07-5.364s-14.81-5.151-18.23-3.2a56.059,56.059,0,0,1-11.81,5.075,3.276,3.276,0,0,1-2.17.563c-0.23,0-.48-0.016-0.72-0.035-0.25.019-.49,0.035-0.72,0.035a3.283,3.283,0,0,1-2.17-.562,56.443,56.443,0,0,1-11.82-5.076c-3.41-1.951-15.29,1.249-18.22,3.2s-13.65,4.876-17.07,5.364,8.6-2.774,13.96-6.187,18.23-7.954,21.15-6.979c2.78,0.925,7.24,5.026,14.89,6.3,7.64-1.278,12.11-5.379,14.89-6.3,2.92-.975,15.78,3.566,21.15,6.979S1326.29,536.317,1322.88,535.83Zm-18.53-64.855c0.48-3.9.45-11.885,0.45-11.885s4.42,3.6,4.91,7.5-2.93,9.265-2.93,9.265S1303.86,474.876,1304.35,470.975Zm-14.14,2.439c-0.98-1.951-10.73-10.728-4.39-8.778s9.26,1.463,9.75,4.877S1291.18,475.364,1290.21,473.414Zm-40.02-3.9c0.49-3.414,3.41-2.926,9.75-4.877s-3.41,6.827-4.39,8.778S1249.7,472.926,1250.19,469.513Zm-11.22,6.339s-3.41-5.364-2.92-9.265,4.91-7.5,4.91-7.5-0.04,7.984.45,11.885S1238.97,475.852,1238.97,475.852Zm-53.15-103.1c-26.3-11.812-33.4-9.584-56.76-5.857-23.91,3.816-31.42,19.686-32.25,23.369,9.51,8.417,22.29,16.036,31.27,20.917,12.78,2.032,30.08,4.5,37.08,4.208,11.7-.487,40.86-10.033,46.71-12.959-4.39,6-27.4,15.951-51.45,16.968-5.67.24-15.2-1.7-24.24-4,1.73,0.861,2.74,1.335,2.74,1.335s-26.3-4.119-44.53-14.451c-7.97-4.518-18.04-13.592-18.04-13.592s5.6,2.113,24.44-14.751c21.37-19.127,57.09-17.4,77.76-10.551,10.95,3.63,20.72,11.206,29.24,25.486,2.84,4.766,9.68,10.738,11.5,15.895-2.26-2.888-9.73-5.228-11.7-8.157C1201.21,387.116,1194.8,376.78,1185.82,372.749Z" transform="translate(-574.688 -34.469)"/>
</svg>
