<svg id="square" xmlns="http://www.w3.org/2000/svg" width="1449.035" height="2365.531" viewBox="0 0 1449.035 2365.531">
  <defs>
    <style>
      .cls-1 {
        fill: #d41857;
      }

      .cls-1, .cls-2, .cls-3, .cls-4, .cls-5 {
        fill-rule: evenodd;
      }

      .cls-2 {
        fill: #a50a3e;
      }

      .cls-3 {
        fill: #010101;
      }

      .cls-4 {
        fill: #333;
      }

      .cls-5 {
        fill: #fff;
      }
    </style>
  </defs>
  <path class="cls-1" d="M1785,1357.18c-75.57,52.29-118,94.66-118,94.66s12.34,3.09,52.45,33.93,194.33,252.95,203.59,283.8-12.34,64.78-15.43,80.2,18.51,43.19,18.51,43.19-36.22,16.41-74.03,33.93c-32.04,14.85-61.7,30.85-61.7,30.85l-27.76-49.36s-73.71,17.93-115.55-50.32c-20.88,21.06-23.26,37.98-23.26,37.98s-6.17,21.6,9.25,37.02,53.32,168.96,43.59,242.61c-8.71,65.95-31.04,81.35-58.82,93.63-2.7,21.21,3.32,61.69,3.32,61.69s-9.56-.97-77.2,7.33c-72.26,8.87-105.03,18.12-105.03,18.12s3.08-24.68-9.26-33.93-55.52-15.42-70.95-37.02-30.84-104.88-58.61-111.05c-10.7-2.38-20.48-4.29-28.47-5.76-7.98,1.47-17.76,3.38-28.47,5.76-27.76,6.17-43.18,89.46-58.61,111.05s-58.61,27.77-70.94,37.02-9.26,33.93-9.26,33.93-32.77-9.25-105.034-18.12c-67.637-8.3-77.2-7.33-77.2-7.33s6.015-40.48,3.316-61.69c-27.781-12.28-50.111-27.68-58.821-93.63-9.726-73.65,28.167-227.18,43.59-242.61s9.255-37.02,9.255-37.02-7.91-16.92-28.791-37.98c-41.837,68.25-110.023,50.32-110.023,50.32l-27.762,49.36s-29.656-16-61.7-30.85c-37.808-17.52-74.034-33.93-74.034-33.93s21.593-27.76,18.509-43.19-24.678-49.35-15.424-80.2,163.491-252.95,203.593-283.8,52.44-33.93,52.44-33.93-42.422-42.37-117.991-94.66c-156.6-108.35-216.9-307.51-210.726-474.086s159.057-492.4,248.514-597.283,289-191.832,471-191.832a22.915,22.915,0,0,0,9.13,0c182,0,381.54,86.951,471,191.832s242.34,430.707,248.51,597.283S1941.59,1248.83,1785,1357.18Z" transform="translate(-547.125 -93.969)"/>
  <path class="cls-2" d="M1622.73,1496.76l-94.09,3.09,97.17-49.36,35.48,1.54,9.25,10.8Zm-35.19,90.33,4.24,58.9-18.3,7.2,2.94,85.61-24.07,20.65-111.93,2.65-24.68-23.8-4.85-74.39-17.5-3.85-5.2-60.35,16-18.31,162.62-11.76Zm-154.17,145.92,18.51,14.1,98.38-4.73,9.58-10.69-2.66-72.09L1497.7,1683l-71.46-15.72Zm-11.55-138.45-12.72,12.94,4.14,42.64,82.89,16.21,74.78-26.15-3.37-41.62-16.47-12.33ZM875.833,1462.83l9.255-10.8,35.474-1.54,97.168,49.36-94.083-3.09Zm27.956,287.75,21.593,67.86-18.508,40.1-26.221-7.71,20.051-58.61Zm97.841,536.65s-21.59,10.79-41.641,7.71-29.305-26.22-29.305-26.22l27.763-9.26Zm614.06-18.51s-9.26,23.13-29.31,26.22-41.64-7.71-41.64-7.71l43.19-27.77Zm29.98-476.5,20.05,58.61-26.22,7.71-18.51-40.1,21.59-67.86Z" transform="translate(-547.125 -93.969)"/>
  <path class="cls-3" d="M1964.25,2008.12c-10.54,14.26-37.92,28.02-50.25,21.85-7.46,23.13-60.78,31.42-74.26-3.68-20.78,18.94-37.69.91-43.03-14.19-8.01-22.69-11.85-41.42-7.22-58.52,10.28-12.34,23.11-26.95,56.02-41.35s42.91-17.13,67.33-19.28c21.39-1.88,31.4,18.75,49.26,40.99S1974.79,1993.85,1964.25,2008.12Zm-504.01-566.85c-106.04,20.34-171.3,17.87-190.14,16.48-18.84,1.39-84.1,3.86-190.14-16.48C851.782,1397.51,732.4,1259.68,755.252,917.148,768.805,714,971.7,332.976,1269.38,318.709c0.11-.006.23,0,0.34,0,0.13-.006.26,0,0.38,0s0.25-.006.38,0,0.23-.005.35,0C1568.51,332.976,1771.4,714,1784.95,917.148,1807.8,1259.68,1688.42,1397.51,1460.24,1441.27ZM743.492,2012.1c-5.334,15.1-21.86,32.97-43.031,14.19-13.477,35.1-66.8,26.81-74.254,3.68-12.339,6.17-39.716-7.59-50.255-21.85s-15.718-51.95,2.148-74.18,27.876-42.87,49.264-40.99c24.421,2.15,34.428,4.89,67.332,19.28s45.739,29.01,56.021,41.35C755.344,1970.68,751.508,1989.41,743.492,2012.1Zm243.8-140.59v77.05c-31.268-5.34-47.263-8.79-47.263-8.79l0.716-73.15S959.113,1868.73,987.29,1871.51Zm38.75,83.33-0.21-79.7c12.73,1.14,26.27,2.29,40.29,3.38,8.62,0.67,20.39,1.42,33.98,2.18v84.64c-4.94-.63-9.76-1.26-14.29-1.87C1063.29,1960.43,1043.42,1957.52,1026.04,1954.84ZM916.176,2347.46a152.8,152.8,0,0,0,11.512-20.55s37.954,0.55,76.732,3.19,94.2,17.36,94.2,17.36a47.251,47.251,0,0,0-2.65,19.39c0.88,10.57,6.17,44.61,3.47,66.7-6.17,11.46-62.52,23.19-107.468,24.96s-112.813,1.76-123.39-5.29-16.745-28.2-14.1-49.36S910.006,2356.27,916.176,2347.46ZM1253.46,1486.1l38.78-3.53-5.29,385.15-30.85-.88Zm132,397.42v88.18c-32.43,3.42-67.02,6.44-97.8,8.05-0.15.39-.28,0.79-0.43,1.17-5.47-.06-11.2-0.2-17.13-0.4-5.93.2-11.66,0.34-17.12,0.4-0.16-.38-0.29-0.78-0.44-1.17-30.77-1.61-65.37-4.63-97.79-8.05v-88.18c44.56,2.13,91.72,4.1,115.35,5.06C1293.74,1887.62,1340.89,1885.65,1385.46,1883.52Zm54.64,81.82V1880.7c13.59-.76,25.37-1.51,33.99-2.18,14.02-1.09,27.55-2.24,40.28-3.38l-0.21,79.7c-17.38,2.68-37.25,5.59-59.76,8.63C1449.86,1964.08,1445.04,1964.71,1440.1,1965.34Zm159.36-98.72,0.72,73.15s-16,3.45-47.27,8.79v-77.05C1581.09,1868.73,1599.46,1866.62,1599.46,1866.62Zm-157.87,480.84s55.41-14.71,94.19-17.36,76.74-3.19,76.74-3.19a152.543,152.543,0,0,0,11.51,20.55c6.17,8.81,59.05,35.25,61.69,56.4s-3.52,42.31-14.1,49.36-78.44,7.05-123.39,5.29-101.3-13.5-107.47-24.96c-2.7-22.09,2.59-56.13,3.47-66.7A47.347,47.347,0,0,0,1441.59,2347.46Z" transform="translate(-547.125 -93.969)"/>
  <path class="cls-4" d="M1735.96,950.6c-87.82,20.975-234.06,54.006-444.52,56.086l-5.91,431.98-30.92,3.44-5.96-435.5c-207.08-2.66-351.292-35.24-438.239-56.006-32.561-7.776-32.9-34.06-8.226-30.847,14.487,1.886,128.952,29.81,250.275,44.8,73.52,9.086,147.72,9.9,210.31,9.955l10.42,0,10.41,0c62.59-.052,136.79-0.869,210.32-9.955,121.32-14.991,235.78-42.915,250.27-44.8C1768.87,916.544,1768.52,942.828,1735.96,950.6Zm-460.72,2.052-0.06,0c-0.66,0-1.33,0-1.99,0s-1.33,0-2,0l-0.06,0c-119.41-.369-257.9-33.542-257.9-33.542S948.2,837.5,962.592,668.865c14.357-168.183,195.718-241.612,308.718-246.1,0.26-.014.51-0.027,0.77-0.035l0.14-.006c0.33-.012.64,0,0.97,0s0.64-.015.96,0c0.05,0,.1,0,0.14.006,0.26,0.008.52,0.021,0.77,0.035,113,4.483,294.36,77.912,308.72,246.1,14.4,168.632-50.64,250.249-50.64,250.249S1394.65,952.287,1275.24,952.656Z" transform="translate(-547.125 -93.969)"/>
  <path class="cls-5" d="M1072.87,510.933h401.79V912.72H1072.87V510.933Zm52.44,52.44h296.91V860.279H1125.31V563.373Z" transform="translate(-547.125 -93.969)"/>
</svg>
